{
	"asset":{
		"version":"2.0",
		"generator":"Houdini GLTF 2.0 Exporter"
	},
	"accessors":[
		{
			"bufferView":0,
			"componentType":5123,
			"count":30000,
			"type":"SCALAR",
			"min":[0
			],
			"max":[11683
			]
		},
		{
			"bufferView":1,
			"componentType":5126,
			"count":11684,
			"type":"VEC3",
			"min":[-0.150396585,-0.0925839022,-0.0225810688
			],
			"max":[0.159072101,0.0825116932,0.0190313496
			]
		},
		{
			"bufferView":2,
			"componentType":5126,
			"count":11684,
			"type":"VEC4",
			"min":[-0.998960018,-0.99877423,-0.99941802,1
			],
			"max":[0.999496937,0.999702096,0.999337673,1
			]
		},
		{
			"bufferView":3,
			"componentType":5126,
			"count":11684,
			"type":"VEC2",
			"min":[-0.000238321576,-0.000499844551
			],
			"max":[1.0028491,0.999628007
			]
		},
		{
			"bufferView":4,
			"componentType":5126,
			"count":11684,
			"type":"VEC3",
			"min":[-0.999856234,-0.999960303,-0.999883533
			],
			"max":[0.999919474,0.999980211,0.999943852
			]
		},
		{
			"bufferView":5,
			"componentType":5123,
			"count":9774,
			"type":"SCALAR",
			"min":[0
			],
			"max":[3349
			]
		},
		{
			"bufferView":6,
			"componentType":5126,
			"count":3350,
			"type":"VEC3",
			"min":[-2.41311526,-2.35522604,-2.09493613
			],
			"max":[3.15016294,2.81397033,3.22837782
			]
		},
		{
			"bufferView":7,
			"componentType":5126,
			"count":3350,
			"type":"VEC3",
			"min":[0.340561181,0.402194977,1.21822834
			],
			"max":[2.59781504,2.95126605,3.5631144
			]
		},
		{
			"bufferView":8,
			"componentType":5126,
			"count":3350,
			"type":"VEC3",
			"min":[-0.996941566,-0.999111772,-0.999308228
			],
			"max":[0.99950099,0.998955786,0.999688148
			]
		}
	],
	"buffers":[
		{
			"uri":"nueron_02_data.bin",
			"byteLength":760980,
			"name":"main_buffer"
		}
	],
	"bufferViews":[
		{
			"buffer":0,
			"byteLength":60000,
			"target":34963
		},
		{
			"buffer":0,
			"byteOffset":60000,
			"byteLength":140208,
			"target":34962
		},
		{
			"buffer":0,
			"byteOffset":200208,
			"byteLength":186944,
			"target":34962
		},
		{
			"buffer":0,
			"byteOffset":387152,
			"byteLength":93472,
			"target":34962
		},
		{
			"buffer":0,
			"byteOffset":480624,
			"byteLength":140208,
			"target":34962
		},
		{
			"buffer":0,
			"byteOffset":620832,
			"byteLength":19548,
			"target":34963
		},
		{
			"buffer":0,
			"byteOffset":640380,
			"byteLength":40200,
			"target":34962
		},
		{
			"buffer":0,
			"byteOffset":680580,
			"byteLength":40200,
			"target":34962
		},
		{
			"buffer":0,
			"byteOffset":720780,
			"byteLength":40200,
			"target":34962
		}
	],
	"nodes":[
		{
			"children":[10
			],
			"name":"Root"
		},
		{
			"name":"brain_mesh"
		},
		{
			"name":"brain_points"
		},
		{
			"children":[4
			],
			"name":"brain_glb"
		},
		{
			"matrix":[1,0,0,0,0,0,1,0,0,-1,0,0,0,0,0,1
			],
			"name":"material"
		},
		{
			"children":[6
			],
			"name":"brain_glb1"
		},
		{
			"matrix":[1,0,0,0,0,0,1,0,0,-1,0,0,0,0,0,1
			],
			"name":"material"
		},
		{
			"children":[8
			],
			"name":"nueron_1_glb"
		},
		{
			"matrix":[1,0,0,0,0,0,1,0,0,-1,0,0,0,0,0,1
			],
			"name":"node_0",
			"mesh":0
		},
		{
			"name":"nueron_growth"
		},
		{
			"name":"nueron_growth",
			"mesh":1
		}
	],
	"meshes":[
		{
			"primitives":[
				{
					"attributes":{
						"POSITION":1,
						"TANGENT":2,
						"NORMAL":4,
						"TEXCOORD_0":3
					},
					"indices":0,
					"material":0
				}
			],
			"name":"NUERON_OUT"
		},
		{
			"primitives":[
				{
					"attributes":{
						"POSITION":6,
						"COLOR_0":7,
						"NORMAL":8
					},
					"indices":5
				}
			],
			"name":"NUERON_OUT"
		}
	],
	"materials":[
		{
			"name":"Material_001",
			"pbrMetallicRoughness":{
				"baseColorTexture":{
					"index":0
				},
				"metallicRoughnessTexture":{
					"index":1
				}
			},
			"normalTexture":{
				"index":2
			}
		}
	],
	"scenes":[
		{
			"nodes":[0
			]
		}
	],
	"textures":[
		{
			"source":0
		},
		{
			"source":1
		},
		{
			"source":2
		}
	],
	"images":[
		{
			"uri":"nueron_1_1_texture_pbr_20250901.png",
			"mimeType":"image/png"
		},
		{
			"uri":"nueron_1_2_texture_pbr_20250901_metallic_texture_pbr_20250901_roughness.png",
			"mimeType":"image/png"
		},
		{
			"uri":"nueron_1_0_texture_pbr_20250901_normal.png",
			"mimeType":"image/png"
		}
	],
	"scene":0
}
